<svg viewBox="0 0 128 128" fill="none" xmlns="http://www.w3.org/2000/svg">
  <defs>
    <linearGradient id="bg" x1="0%" y1="0%" x2="100%" y2="100%">
      <stop offset="0%" stop-color="#051326"/>
      <stop offset="100%" stop-color="#082142"/>
    </linearGradient>
    <linearGradient id="p1" x1="0%" y1="100%" x2="100%" y2="0%">
      <stop offset="0%" stop-color="#38bdf8"/>
      <stop offset="100%" stop-color="#0284c7"/>
    </linearGradient>
    <linearGradient id="p2" x1="0%" y1="100%" x2="100%" y2="0%">
      <stop offset="0%" stop-color="#0ea5e9"/>
      <stop offset="100%" stop-color="#2563eb"/>
    </linearGradient>
    <linearGradient id="p3" x1="0%" y1="100%" x2="0%" y2="0%">
      <stop offset="0%" stop-color="#2563eb"/>
      <stop offset="100%" stop-color="#60a5fa"/>
    </linearGradient>
    <linearGradient id="p4" x1="100%" y1="100%" x2="0%" y2="0%">
      <stop offset="0%" stop-color="#2563eb"/>
      <stop offset="100%" stop-color="#0ea5e9"/>
    </linearGradient>
    <linearGradient id="p5" x1="100%" y1="100%" x2="0%" y2="0%">
      <stop offset="0%" stop-color="#1d4ed8"/>
      <stop offset="100%" stop-color="#38bdf8"/>
    </linearGradient>
    <filter id="glow" x="-20%" y="-20%" width="140%" height="140%">
      <feGaussianBlur stdDeviation="3" result="blur" />
      <feComposite in="SourceGraphic" in2="blur" operator="over" />
    </filter>
  </defs>
  <!-- Rounded Container for Apple Icon & Favicon -->
  <rect width="128" height="128" rx="28" fill="url(#bg)"/>
  <rect width="126" height="126" x="1" y="1" rx="27" stroke="rgba(56, 189, 248, 0.3)" stroke-width="2"/>
  
  <!-- 5-Petal Radiant Lotus -->
  <g transform="translate(14, 16) scale(2.5)" filter="url(#glow)">
    <!-- Center petal -->
    <path d="M20 34 C18 25, 14 14, 20 6 C26 14, 22 25, 20 34 Z" fill="url(#p3)"/>
    <!-- Inner Left petal -->
    <path d="M20 34 C16 26, 9 19, 11 11 C18 13, 20 22, 20 34 Z" fill="url(#p2)"/>
    <!-- Inner Right petal -->
    <path d="M20 34 C24 26, 31 19, 29 11 C22 13, 20 22, 20 34 Z" fill="url(#p4)"/>
    <!-- Outer Left petal -->
    <path d="M20 34 C14 28, 4 24, 4 17 C11 17, 17 25, 20 34 Z" fill="url(#p1)"/>
    <!-- Outer Right petal -->
    <path d="M20 34 C26 28, 36 24, 36 17 C29 17, 23 25, 20 34 Z" fill="url(#p5)"/>
  </g>
</svg>